# xmcd
#
# Track frame offsets: 
#        150
#        21479
#        38535
#        58089
#        75876
#        105597
#        125745
#        144754
#        165700
#        178806
#        198850
#
# Disc length: 2955 seconds
#
# Revision: 0
# Processed by: cddbd v1.5.2PL0 Copyright (c) Steve Scherf et al.
# Submitted via: ExactAudioCopy v1.0b1
#
DISCID=890b890b
DTITLE=Dudley Taft - Deep Deep Blue
DYEAR=2013
DGENRE=Blues Rock
TTITLE0=Meet Me In The Morning
TTITLE1=The Waiting
TTITLE2=God Forbid
TTITLE3=Sally Cant Dance
TTITLE4=Deep Deep Blue
TTITLE5=Feeling Good Now
TTITLE6=Wishing Well
TTITLE7=Satisfy You
TTITLE8=Bandit Queen
TTITLE9=Palace of The King
TTITLE10=Shanks Akimbo
EXTD=
EXTT0=
EXTT1=
EXTT2=
EXTT3=
EXTT4=
EXTT5=
EXTT6=
EXTT7=
EXTT8=
EXTT9=
EXTT10=
PLAYORDER=
